<svg id="visual" viewBox="0 0 960 540" width="960" height="540" xmlns="http://www.w3.org/2000/svg" xmlns:xlink="http://www.w3.org/1999/xlink" version="1.1"><rect x="0" y="0" width="960" height="540" fill="#7B6FFB"></rect><defs><linearGradient id="grad1_0" x1="43.8%" y1="0%" x2="100%" y2="100%"><stop offset="14.444444444444446%" stop-color="#5f55d2" stop-opacity="1"></stop><stop offset="85.55555555555554%" stop-color="#5f55d2" stop-opacity="1"></stop></linearGradient></defs><defs><linearGradient id="grad1_1" x1="43.8%" y1="0%" x2="100%" y2="100%"><stop offset="14.444444444444446%" stop-color="#5f55d2" stop-opacity="1"></stop><stop offset="85.55555555555554%" stop-color="#6d62e6" stop-opacity="1"></stop></linearGradient></defs><defs><linearGradient id="grad1_2" x1="43.8%" y1="0%" x2="100%" y2="100%"><stop offset="14.444444444444446%" stop-color="#7b6ffb" stop-opacity="1"></stop><stop offset="85.55555555555554%" stop-color="#6d62e6" stop-opacity="1"></stop></linearGradient></defs><defs><linearGradient id="grad2_0" x1="0%" y1="0%" x2="56.3%" y2="100%"><stop offset="14.444444444444446%" stop-color="#5f55d2" stop-opacity="1"></stop><stop offset="85.55555555555554%" stop-color="#5f55d2" stop-opacity="1"></stop></linearGradient></defs><defs><linearGradient id="grad2_1" x1="0%" y1="0%" x2="56.3%" y2="100%"><stop offset="14.444444444444446%" stop-color="#6d62e6" stop-opacity="1"></stop><stop offset="85.55555555555554%" stop-color="#5f55d2" stop-opacity="1"></stop></linearGradient></defs><defs><linearGradient id="grad2_2" x1="0%" y1="0%" x2="56.3%" y2="100%"><stop offset="14.444444444444446%" stop-color="#6d62e6" stop-opacity="1"></stop><stop offset="85.55555555555554%" stop-color="#7b6ffb" stop-opacity="1"></stop></linearGradient></defs><g transform="translate(960, 0)"><path d="M0 378C-41.7 345.3 -83.3 312.6 -119.4 288.3C-155.5 263.9 -186 247.8 -227.7 227.7C-269.4 207.5 -322.3 183.3 -349.2 144.7C-376.1 106 -377.1 53 -378 0L0 0Z" fill="#7468f1"></path><path d="M0 252C-27.8 230.2 -55.5 208.4 -79.6 192.2C-103.7 175.9 -124 165.2 -151.8 151.8C-179.6 138.4 -214.9 122.2 -232.8 96.4C-250.8 70.7 -251.4 35.3 -252 0L0 0Z" fill="#665bdc"></path><path d="M0 126C-13.9 115.1 -27.8 104.2 -39.8 96.1C-51.8 88 -62 82.6 -75.9 75.9C-89.8 69.2 -107.4 61.1 -116.4 48.2C-125.4 35.3 -125.7 17.7 -126 0L0 0Z" fill="#5f55d2"></path></g><g transform="translate(0, 540)"><path d="M0 -378C42.9 -346.8 85.7 -315.6 119.8 -289.2C153.8 -262.7 179 -241 220.6 -220.6C262.2 -200.2 320.3 -181.2 349.2 -144.7C378.2 -108.1 378.1 -54.1 378 0L0 0Z" fill="#7468f1"></path><path d="M0 -252C28.6 -231.2 57.2 -210.4 79.9 -192.8C102.5 -175.1 119.3 -160.7 147.1 -147.1C174.8 -133.5 213.5 -120.8 232.8 -96.4C252.1 -72.1 252.1 -36 252 0L0 0Z" fill="#665bdc"></path><path d="M0 -126C14.3 -115.6 28.6 -105.2 39.9 -96.4C51.3 -87.6 59.7 -80.3 73.5 -73.5C87.4 -66.7 106.8 -60.4 116.4 -48.2C126.1 -36 126 -18 126 0L0 0Z" fill="#5f55d2"></path></g></svg>